<?xml version="1.0" encoding="UTF-8" standalone="no"?>
<!DOCTYPE svg PUBLIC "-//W3C//DTD SVG 20010904//EN"
              "http://www.w3.org/TR/2001/REC-SVG-20010904/DTD/svg10.dtd">

<svg xmlns="http://www.w3.org/2000/svg"
     viewBox="0 0 910 150">
  <path id="aboutPath"
        fill="white"
        d="M 52.25,146.00
           C 52.25,146.00 50.08,124.70 50.08,124.70
             50.08,124.70 36.30,124.70 36.30,124.70
             36.30,124.70 34.13,146.00 34.13,146.00
             34.13,146.00 5.17,146.00 5.17,146.00
             5.17,146.00 28.81,4.00 28.81,4.00
             28.81,4.00 57.56,4.00 57.56,4.00
             57.56,4.00 81.20,146.00 81.20,146.00
             81.20,146.00 51.86,146.00 51.86,146.00
             51.86,146.00 52.25,146.00 52.25,146.00 Z
           M 48.11,103.59
           C 48.11,103.59 43.19,46.80 43.19,46.80
             43.19,46.80 38.27,103.59 38.27,103.59
             38.27,103.59 48.11,103.59 48.11,103.59 Z
           M 119.61,4.00
           C 128.45,4.00 138.11,7.36 144.34,13.47
             150.78,19.78 154.41,28.66 154.41,38.13
             154.41,38.13 154.41,51.53 154.41,51.53
             154.41,59.42 150.44,66.91 145.67,72.83
             151.44,79.14 156.00,87.42 156.00,96.30
             156.00,96.30 156.00,111.88 156.00,111.88
             156.00,121.55 152.41,130.42 146.03,136.73
             139.84,142.64 130.28,146.00 121.50,146.00
             121.50,146.00 88.00,146.00 88.00,146.00
             88.00,146.00 88.00,4.00 88.00,4.00
             88.00,4.00 119.61,4.00 119.61,4.00 Z
           M 116.00,27.47
           C 116.00,27.47 116.00,63.77 116.00,63.77
             116.00,63.77 120.05,63.77 120.05,63.77
             124.09,63.77 126.00,61.39 126.00,57.84
             126.00,57.84 126.00,33.39 126.00,33.39
             126.00,29.44 123.44,27.47 119.61,27.47
             119.61,27.47 116.00,27.47 116.00,27.47 Z
           M 127.59,89.98
           C 127.59,86.05 124.64,83.88 121.48,83.88
             120.84,83.88 116.00,83.88 116.00,83.88
             116.00,83.88 116.00,122.73 116.00,122.73
             116.00,122.73 121.31,122.73 121.31,122.73
             126.13,122.73 127.59,120.77 127.59,116.61
             127.59,116.61 127.59,89.98 127.59,89.98 Z
           M 229.00,32.86
           C 229.00,32.86 229.00,118.14 229.00,118.14
             229.00,127.83 225.47,134.95 219.02,141.28
             212.94,147.42 204.52,149.00 195.91,149.00
             187.28,149.00 178.86,147.42 172.80,141.28
             166.53,134.95 163.00,127.83 163.00,118.14
             163.00,118.14 163.00,32.86 163.00,32.86
             163.00,23.36 166.53,16.05 172.80,9.72
             178.86,3.78 187.28,2.00 195.91,2.00
             204.52,2.00 212.94,3.78 219.02,9.72
             225.47,16.05 229.00,23.36 229.00,32.86 Z
           M 201.00,31.28
           C 201.00,27.31 197.42,26.92 195.91,26.92
             194.58,26.92 191.00,27.31 191.00,31.28
             191.00,31.28 191.00,119.72 191.00,119.72
             191.00,123.67 194.58,124.27 195.91,124.27
             197.42,124.27 201.00,123.67 201.00,119.72
             201.00,119.72 201.00,31.28 201.00,31.28 Z
           M 274.00,4.00
           C 274.00,4.00 302.00,4.00 302.00,4.00
             302.00,4.00 302.00,117.34 302.00,117.34
             302.00,126.84 298.44,134.95 292.13,141.28
             286.00,147.22 277.69,149.00 269.00,149.00
             260.31,149.00 251.81,147.22 245.88,141.28
             239.56,134.95 236.00,126.84 236.00,117.34
             236.00,117.34 236.00,4.00 236.00,4.00
             236.00,4.00 264.00,4.00 264.00,4.00
             264.00,4.00 264.00,119.72 264.00,119.72
             264.00,123.69 267.66,124.08 269.00,124.08
             270.34,124.08 274.00,123.69 274.00,119.72
             274.00,119.72 274.00,4.00 274.00,4.00 Z
           M 326.00,27.64
           C 326.00,27.64 307.28,27.64 307.28,27.64
             307.28,27.64 307.28,4.00 307.28,4.00
             307.28,4.00 372.72,4.00 372.72,4.00
             372.72,4.00 372.72,27.64 372.72,27.64
             372.72,27.64 354.00,27.64 354.00,27.64
             354.00,27.64 354.00,146.00 354.00,146.00
             354.00,146.00 326.00,146.00 326.00,146.00
             326.00,146.00 326.00,27.64 326.00,27.64 Z" />
</svg>
