<?xml version="1.0" encoding="UTF-8" standalone="no"?>
<!DOCTYPE svg PUBLIC "-//W3C//DTD SVG 20010904//EN"
              "http://www.w3.org/TR/2001/REC-SVG-20010904/DTD/svg10.dtd">

<svg xmlns="http://www.w3.org/2000/svg"
     viewBox="0 0 136 67">
  <path id="backPath"
        fill="white"
        d="M 14.81,1.00
           C 19.00,1.00 23.55,2.53 26.50,5.33
             29.55,8.22 31.25,12.30 31.25,16.63
             31.25,16.63 31.25,22.75 31.25,22.75
             31.25,26.36 29.39,29.80 27.17,32.50
             29.86,35.39 32.00,39.19 32.00,43.25
             32.00,43.25 32.00,50.38 32.00,50.38
             32.00,54.80 30.31,58.86 27.31,61.75
             24.41,64.47 19.89,66.00 15.77,66.00
             15.77,66.00 0.00,66.00 0.00,66.00
             0.00,66.00 0.00,1.00 0.00,1.00
             0.00,1.00 14.81,1.00 14.81,1.00 Z
           M 13.00,11.75
           C 13.00,11.75 13.00,28.36 13.00,28.36
             13.00,28.36 15.02,28.36 15.02,28.36
             17.05,28.36 18.00,27.27 18.00,25.64
             18.00,25.64 18.00,14.45 18.00,14.45
             18.00,12.66 16.72,11.75 14.81,11.75
             14.81,11.75 13.00,11.75 13.00,11.75 Z
           M 18.73,40.36
           C 18.73,38.56 17.28,37.56 15.70,37.56
             15.39,37.56 13.00,37.56 13.00,37.56
             13.00,37.56 13.00,55.34 13.00,55.34
             13.00,55.34 15.66,55.34 15.66,55.34
             18.02,55.34 18.73,54.44 18.73,52.55
             18.73,52.55 18.73,40.36 18.73,40.36 Z
           M 53.50,66.00
           C 53.50,66.00 52.52,56.25 52.52,56.25
             52.52,56.25 46.20,56.25 46.20,56.25
             46.20,56.25 45.22,66.00 45.22,66.00
             45.22,66.00 31.98,66.00 31.98,66.00
             31.98,66.00 42.80,1.00 42.80,1.00
             42.80,1.00 55.94,1.00 55.94,1.00
             55.94,1.00 66.73,66.00 66.73,66.00
             66.73,66.00 53.31,66.00 53.31,66.00
             53.31,66.00 53.50,66.00 53.50,66.00 Z
           M 51.61,46.59
           C 51.61,46.59 49.36,20.59 49.36,20.59
             49.36,20.59 47.11,46.59 47.11,46.59
             47.11,46.59 51.61,46.59 51.61,46.59 Z
           M 86.00,40.13
           C 86.00,40.13 99.00,40.13 99.00,40.13
             99.00,40.13 99.00,52.84 99.00,52.84
             99.00,57.27 97.39,60.52 94.42,63.48
             91.72,66.19 87.95,67.00 84.00,67.00
             80.05,67.00 76.28,66.19 73.58,63.48
             70.61,60.52 69.00,57.27 69.00,52.84
             69.00,52.84 69.00,14.16 69.00,14.16
             69.00,9.73 70.61,6.41 73.58,3.52
             76.28,0.81 80.05,0.00 84.00,0.00
             87.95,0.00 91.72,0.81 94.42,3.52
             97.39,6.41 99.00,9.73 99.00,14.16
             99.00,14.16 99.00,27.33 99.00,27.33
             99.00,27.33 86.00,27.33 86.00,27.33
             86.00,27.33 86.00,13.44 86.00,13.44
             86.00,11.55 84.56,11.36 84.00,11.36
             83.44,11.36 82.00,11.55 82.00,13.44
             82.00,13.44 82.00,53.56 82.00,53.56
             82.00,55.45 83.44,55.64 84.00,55.64
             84.56,55.64 86.00,55.45 86.00,53.56
             86.00,53.56 86.00,40.13 86.00,40.13 Z
           M 124.53,27.00
           C 124.53,27.00 136.14,66.00 136.14,66.00
             136.14,66.00 123.27,66.00 123.27,66.00
             123.27,66.00 115.98,39.38 115.98,39.38
             115.98,39.38 114.00,44.25 114.00,44.25
             114.00,44.25 114.00,66.00 114.00,66.00
             114.00,66.00 102.00,66.00 102.00,66.00
             102.00,66.00 102.00,1.00 102.00,1.00
             102.00,1.00 114.00,1.00 114.00,1.00
             114.00,1.00 114.00,24.11 114.00,24.11
             114.00,24.11 121.56,1.00 121.56,1.00
             121.56,1.00 134.34,1.00 134.34,1.00
             134.34,1.00 124.53,27.00 124.53,27.00 Z" />
</svg>
