<?xml version="1.0" encoding="UTF-8" standalone="no"?>
<!DOCTYPE svg PUBLIC "-//W3C//DTD SVG 20010904//EN"
              "http://www.w3.org/TR/2001/REC-SVG-20010904/DTD/svg10.dtd">

<svg xmlns="http://www.w3.org/2000/svg"
     viewBox="0 0 910 150">
  <path id="contactPath"
        fill="white"
        d="M 45.00,90.05
           C 45.00,90.05 73.00,90.05 73.00,90.05
             73.00,90.05 73.00,117.94 73.00,117.94
             73.00,127.63 69.44,134.75 62.92,141.28
             57.00,147.22 48.69,149.00 40.00,149.00
             31.31,149.00 23.00,147.22 17.08,141.28
             10.56,134.75 7.00,127.63 7.00,117.94
             7.00,117.94 7.00,33.06 7.00,33.06
             7.00,23.38 10.56,16.05 17.08,9.72
             23.00,3.78 31.31,2.00 40.00,2.00
             48.69,2.00 57.00,3.78 62.92,9.72
             69.44,16.05 73.00,23.38 73.00,33.06
             73.00,33.06 73.00,61.95 73.00,61.95
             73.00,61.95 45.00,61.95 45.00,61.95
             45.00,61.95 45.00,31.47 45.00,31.47
             45.00,27.31 41.41,26.92 40.00,26.92
             38.59,26.92 35.00,27.31 35.00,31.48
             35.00,31.48 35.00,119.52 35.00,119.52
             35.00,123.69 38.59,124.08 40.00,124.08
             41.41,124.08 45.00,123.69 45.00,119.52
             45.00,119.52 45.00,90.05 45.00,90.05 Z
           M 146.00,32.86
           C 146.00,32.86 146.00,118.14 146.00,118.14
             146.00,127.83 142.47,134.95 136.02,141.28
             129.94,147.42 121.52,149.00 112.91,149.00
             104.28,149.00 95.86,147.42 89.80,141.28
             83.53,134.95 80.00,127.83 80.00,118.14
             80.00,118.14 80.00,32.86 80.00,32.86
             80.00,23.36 83.53,16.05 89.80,9.72
             95.86,3.78 104.28,2.00 112.91,2.00
             121.52,2.00 129.94,3.78 136.02,9.72
             142.47,16.05 146.00,23.36 146.00,32.86 Z
           M 118.00,31.28
           C 118.00,27.31 114.42,26.92 112.91,26.92
             111.58,26.92 108.00,27.31 108.00,31.28
             108.00,31.28 108.00,119.72 108.00,119.72
             108.00,123.67 111.58,124.27 112.91,124.27
             114.42,124.27 118.00,123.67 118.00,119.72
             118.00,119.72 118.00,31.28 118.00,31.28 Z
           M 196.22,146.00
           C 196.22,146.00 179.00,69.08 179.00,69.08
             179.00,69.08 179.00,146.00 179.00,146.00
             179.00,146.00 154.00,146.00 154.00,146.00
             154.00,146.00 154.00,4.00 154.00,4.00
             154.00,4.00 180.56,4.00 180.56,4.00
             180.56,4.00 197.00,83.88 197.00,83.88
             197.00,83.88 197.00,4.00 197.00,4.00
             197.00,4.00 222.00,4.00 222.00,4.00
             222.00,4.00 222.00,146.00 222.00,146.00
             222.00,146.00 196.22,146.00 196.22,146.00 Z
           M 248.00,27.64
           C 248.00,27.64 229.28,27.64 229.28,27.64
             229.28,27.64 229.28,4.00 229.28,4.00
             229.28,4.00 294.72,4.00 294.72,4.00
             294.72,4.00 294.72,27.64 294.72,27.64
             294.72,27.64 276.00,27.64 276.00,27.64
             276.00,27.64 276.00,146.00 276.00,146.00
             276.00,146.00 248.00,146.00 248.00,146.00
             248.00,146.00 248.00,27.64 248.00,27.64 Z
           M 334.25,146.00
           C 334.25,146.00 332.08,124.70 332.08,124.70
             332.08,124.70 318.30,124.70 318.30,124.70
             318.30,124.70 316.13,146.00 316.13,146.00
             316.13,146.00 287.17,146.00 287.17,146.00
             287.17,146.00 310.81,4.00 310.81,4.00
             310.81,4.00 339.56,4.00 339.56,4.00
             339.56,4.00 363.20,146.00 363.20,146.00
             363.20,146.00 333.86,146.00 333.86,146.00
             333.86,146.00 334.25,146.00 334.25,146.00 Z
           M 330.11,103.59
           C 330.11,103.59 325.19,46.80 325.19,46.80
             325.19,46.80 320.27,103.59 320.27,103.59
             320.27,103.59 330.11,103.59 330.11,103.59 Z
           M 404.00,90.05
           C 404.00,90.05 432.00,90.05 432.00,90.05
             432.00,90.05 432.00,117.94 432.00,117.94
             432.00,127.63 428.44,134.75 421.92,141.28
             416.00,147.22 407.69,149.00 399.00,149.00
             390.31,149.00 382.00,147.22 376.08,141.28
             369.56,134.75 366.00,127.63 366.00,117.94
             366.00,117.94 366.00,33.06 366.00,33.06
             366.00,23.38 369.56,16.05 376.08,9.72
             382.00,3.78 390.31,2.00 399.00,2.00
             407.69,2.00 416.00,3.78 421.92,9.72
             428.44,16.05 432.00,23.38 432.00,33.06
             432.00,33.06 432.00,61.95 432.00,61.95
             432.00,61.95 404.00,61.95 404.00,61.95
             404.00,61.95 404.00,31.47 404.00,31.47
             404.00,27.31 400.41,26.92 399.00,26.92
             397.59,26.92 394.00,27.31 394.00,31.48
             394.00,31.48 394.00,119.52 394.00,119.52
             394.00,123.69 397.59,124.08 399.00,124.08
             400.41,124.08 404.00,123.69 404.00,119.52
             404.00,119.52 404.00,90.05 404.00,90.05 Z
           M 456.00,27.64
           C 456.00,27.64 437.28,27.64 437.28,27.64
             437.28,27.64 437.28,4.00 437.28,4.00
             437.28,4.00 502.72,4.00 502.72,4.00
             502.72,4.00 502.72,27.64 502.72,27.64
             502.72,27.64 484.00,27.64 484.00,27.64
             484.00,27.64 484.00,146.00 484.00,146.00
             484.00,146.00 456.00,146.00 456.00,146.00
             456.00,146.00 456.00,27.64 456.00,27.64 Z" />
</svg>
