<?xml version="1.0" encoding="UTF-8" standalone="no"?>
<!DOCTYPE svg PUBLIC "-//W3C//DTD SVG 20010904//EN"
              "http://www.w3.org/TR/2001/REC-SVG-20010904/DTD/svg10.dtd">

<svg xmlns="http://www.w3.org/2000/svg"
     viewBox="0 0 910 150">
  <path id="githubPath"
        fill="white"
        d="M 73.00,77.66
           C 73.00,118.16 73.00,118.34 73.00,146.00
             73.00,146.00 65.17,146.00 65.17,146.00
             65.17,146.00 64.19,139.11 63.78,139.50
             57.84,145.41 52.28,149.00 40.00,149.00
             31.31,149.00 23.00,147.20 17.08,141.23
             10.56,134.67 7.00,127.50 7.00,117.75
             7.00,117.75 7.00,33.02 7.00,33.02
             7.00,23.33 10.56,16.03 17.08,9.70
             23.00,3.78 31.31,2.00 40.00,2.00
             48.69,2.00 57.00,3.78 62.92,9.70
             69.44,16.03 73.00,23.33 73.00,33.02
             73.00,33.02 73.00,62.05 73.00,62.05
             73.00,62.05 45.17,62.05 45.17,62.05
             45.17,62.05 45.17,31.44 45.17,31.44
             45.17,27.28 41.45,26.89 40.00,26.89
             38.59,26.89 35.00,27.28 35.00,31.44
             35.00,31.44 35.00,119.33 35.00,119.33
             35.00,123.48 39.00,123.88 40.41,123.88
             41.86,123.88 45.17,123.48 46.00,119.33
             46.00,119.33 46.00,93.45 46.00,93.45
             46.00,93.45 40.00,93.45 40.00,93.45
             40.00,93.45 40.00,77.66 40.00,77.66
             40.00,77.66 73.00,77.66 73.00,77.66 Z
           M 83.00,4.00
           C 83.00,4.00 111.00,4.00 111.00,4.00
             111.00,4.00 111.00,146.00 111.00,146.00
             111.00,146.00 83.00,146.00 83.00,146.00
             83.00,146.00 83.00,4.00 83.00,4.00 Z
           M 139.00,27.64
           C 139.00,27.64 120.28,27.64 120.28,27.64
             120.28,27.64 120.28,4.00 120.28,4.00
             120.28,4.00 185.72,4.00 185.72,4.00
             185.72,4.00 185.72,27.64 185.72,27.64
             185.72,27.64 167.00,27.64 167.00,27.64
             167.00,27.64 167.00,146.00 167.00,146.00
             167.00,146.00 139.00,146.00 139.00,146.00
             139.00,146.00 139.00,27.64 139.00,27.64 Z
           M 193.00,4.00
           C 193.00,4.00 222.00,4.00 222.00,4.00
             222.00,4.00 222.00,65.92 222.00,65.92
             222.00,65.92 233.00,65.92 233.00,65.92
             233.00,65.92 233.00,4.00 233.00,4.00
             233.00,4.00 262.00,4.00 262.00,4.00
             262.00,4.00 262.00,146.00 262.00,146.00
             262.00,146.00 233.00,146.00 233.00,146.00
             233.00,146.00 233.00,86.44 233.00,86.44
             233.00,86.44 222.00,86.44 222.00,86.44
             222.00,86.44 222.00,146.00 222.00,146.00
             222.00,146.00 193.00,146.00 193.00,146.00
             193.00,146.00 193.00,4.00 193.00,4.00 Z
           M 309.00,4.00
           C 309.00,4.00 337.00,4.00 337.00,4.00
             337.00,4.00 337.00,117.34 337.00,117.34
             337.00,126.84 333.44,134.95 327.13,141.28
             321.00,147.22 312.69,149.00 304.00,149.00
             295.31,149.00 286.81,147.22 280.88,141.28
             274.56,134.95 271.00,126.84 271.00,117.34
             271.00,117.34 271.00,4.00 271.00,4.00
             271.00,4.00 299.00,4.00 299.00,4.00
             299.00,4.00 299.00,119.72 299.00,119.72
             299.00,123.69 302.66,124.08 304.00,124.08
             305.34,124.08 309.00,123.69 309.00,119.72
             309.00,119.72 309.00,4.00 309.00,4.00 Z
           M 376.61,4.00
           C 385.45,4.00 395.11,7.36 401.34,13.47
             407.78,19.78 411.41,28.66 411.41,38.13
             411.41,38.13 411.41,51.53 411.41,51.53
             411.41,59.42 407.44,66.91 402.67,72.83
             408.44,79.14 413.00,87.42 413.00,96.30
             413.00,96.30 413.00,111.88 413.00,111.88
             413.00,121.55 409.41,130.42 403.03,136.73
             396.84,142.64 387.28,146.00 378.50,146.00
             378.50,146.00 345.00,146.00 345.00,146.00
             345.00,146.00 345.00,4.00 345.00,4.00
             345.00,4.00 376.61,4.00 376.61,4.00 Z
           M 373.00,27.47
           C 373.00,27.47 373.00,63.77 373.00,63.77
             373.00,63.77 377.05,63.77 377.05,63.77
             381.09,63.77 383.00,61.39 383.00,57.84
             383.00,57.84 383.00,33.39 383.00,33.39
             383.00,29.44 380.44,27.47 376.61,27.47
             376.61,27.47 373.00,27.47 373.00,27.47 Z
           M 384.59,89.98
           C 384.59,86.05 381.64,83.88 378.48,83.88
             377.84,83.88 373.00,83.88 373.00,83.88
             373.00,83.88 373.00,122.73 373.00,122.73
             373.00,122.73 378.31,122.73 378.31,122.73
             383.13,122.73 384.59,120.77 384.59,116.61
             384.59,116.61 384.59,89.98 384.59,89.98 Z" />
</svg>
