<?xml version="1.0" encoding="UTF-8" standalone="no"?>
<!DOCTYPE svg PUBLIC "-//W3C//DTD SVG 20010904//EN"
              "http://www.w3.org/TR/2001/REC-SVG-20010904/DTD/svg10.dtd">

<svg xmlns="http://www.w3.org/2000/svg"
     viewBox="0 0 910 150">
  <path id="namePath"
        fill="white"
        d="M 8.00,4.00
           C 8.00,4.00 37.00,4.00 37.00,4.00
             37.00,4.00 37.00,120.59 37.00,120.59
             37.00,120.59 63.00,120.59 63.00,120.59
             63.00,120.59 63.00,146.00 63.00,146.00
             63.00,146.00 8.00,146.00 8.00,146.00
             8.00,146.00 8.00,4.00 8.00,4.00 Z
           M 108.00,4.00
           C 108.00,4.00 136.00,4.00 136.00,4.00
             136.00,4.00 136.00,117.34 136.00,117.34
             136.00,126.84 132.44,134.95 126.13,141.28
             120.00,147.22 111.69,149.00 103.00,149.00
             94.31,149.00 85.81,147.22 79.88,141.28
             73.56,134.95 70.00,126.84 70.00,117.34
             70.00,117.34 70.00,4.00 70.00,4.00
             70.00,4.00 98.00,4.00 98.00,4.00
             98.00,4.00 98.00,119.72 98.00,119.72
             98.00,123.69 101.66,124.08 103.00,124.08
             104.34,124.08 108.00,123.69 108.00,119.72
             108.00,119.72 108.00,4.00 108.00,4.00 Z
           M 181.00,90.05
           C 181.00,90.05 209.00,90.05 209.00,90.05
             209.00,90.05 209.00,117.94 209.00,117.94
             209.00,127.63 205.44,134.75 198.92,141.28
             193.00,147.22 184.69,149.00 176.00,149.00
             167.31,149.00 159.00,147.22 153.08,141.28
             146.56,134.75 143.00,127.63 143.00,117.94
             143.00,117.94 143.00,33.06 143.00,33.06
             143.00,23.38 146.56,16.05 153.08,9.72
             159.00,3.78 167.31,2.00 176.00,2.00
             184.69,2.00 193.00,3.78 198.92,9.72
             205.44,16.05 209.00,23.38 209.00,33.06
             209.00,33.06 209.00,61.95 209.00,61.95
             209.00,61.95 181.00,61.95 181.00,61.95
             181.00,61.95 181.00,31.47 181.00,31.47
             181.00,27.31 177.41,26.92 176.00,26.92
             174.59,26.92 171.00,27.31 171.00,31.48
             171.00,31.48 171.00,119.52 171.00,119.52
             171.00,123.69 174.59,124.08 176.00,124.08
             177.41,124.08 181.00,123.69 181.00,119.52
             181.00,119.52 181.00,90.05 181.00,90.05 Z
           M 258.25,146.00
           C 258.25,146.00 256.08,124.70 256.08,124.70
             256.08,124.70 242.30,124.70 242.30,124.70
             242.30,124.70 240.13,146.00 240.13,146.00
             240.13,146.00 211.17,146.00 211.17,146.00
             211.17,146.00 234.81,4.00 234.81,4.00
             234.81,4.00 263.56,4.00 263.56,4.00
             263.56,4.00 287.20,146.00 287.20,146.00
             287.20,146.00 257.86,146.00 257.86,146.00
             257.86,146.00 258.25,146.00 258.25,146.00 Z
           M 254.11,103.59
           C 254.11,103.59 249.19,46.80 249.19,46.80
             249.19,46.80 244.27,103.59 244.27,103.59
             244.27,103.59 254.11,103.59 254.11,103.59 Z
           M 354.78,117.94
           C 354.78,127.03 351.61,134.36 344.69,141.09
             339.34,146.42 332.02,149.00 321.53,149.00
             311.67,149.00 305.28,146.63 299.86,141.09
             293.09,134.36 290.00,127.05 290.00,117.94
             290.00,117.94 290.00,95.19 290.00,95.19
             290.00,95.19 316.83,95.19 316.83,95.19
             316.83,95.19 316.83,119.31 316.83,119.31
             316.83,123.28 320.41,123.67 321.53,123.67
             322.47,123.67 326.00,123.28 326.00,119.33
             326.00,119.33 326.00,101.91 326.00,101.91
             326.00,95.78 324.27,95.19 317.72,88.66
             317.72,88.66 297.70,70.06 297.70,70.06
             292.50,64.72 290.00,59.58 290.00,50.88
             290.00,50.47 290.00,33.06 290.00,33.06
             290.00,23.97 293.09,16.44 299.86,9.72
             305.28,4.38 311.66,2.00 321.72,2.00
             331.81,2.00 338.36,4.38 343.91,9.72
             350.83,16.44 354.00,23.97 354.00,33.06
             354.00,33.06 354.00,53.64 354.00,53.64
             354.00,53.64 326.00,53.64 326.00,53.64
             326.00,53.64 326.00,31.67 326.00,31.67
             326.00,27.92 323.39,27.13 322.09,27.13
             320.42,27.13 318.00,27.92 318.00,31.48
             318.00,31.48 318.00,48.09 318.00,48.09
             318.00,54.81 321.73,56.00 326.45,60.75
             326.45,60.75 347.31,78.77 347.31,78.77
             353.59,85.09 354.78,90.44 354.78,101.31
             354.78,101.31 354.78,117.94 354.78,117.94 Z
           M 438.22,146.00
           C 438.22,146.00 421.00,69.08 421.00,69.08
             421.00,69.08 421.00,146.00 421.00,146.00
             421.00,146.00 396.00,146.00 396.00,146.00
             396.00,146.00 396.00,4.00 396.00,4.00
             396.00,4.00 422.56,4.00 422.56,4.00
             422.56,4.00 439.00,83.88 439.00,83.88
             439.00,83.88 439.00,4.00 439.00,4.00
             439.00,4.00 464.00,4.00 464.00,4.00
             464.00,4.00 464.00,146.00 464.00,146.00
             464.00,146.00 438.22,146.00 438.22,146.00 Z
           M 474.00,4.00
           C 474.00,4.00 528.70,4.00 528.70,4.00
             528.70,4.00 528.70,27.64 528.70,27.64
             528.70,27.64 503.00,27.64 503.00,27.64
             503.00,27.64 503.00,66.00 503.00,66.00
             503.00,66.00 522.00,66.00 522.00,66.00
             522.00,66.00 522.00,86.00 522.00,86.00
             522.00,86.00 503.00,86.00 503.00,86.00
             503.00,86.00 503.00,121.38 503.00,121.38
             503.00,121.38 528.70,121.38 528.70,121.38
             528.70,121.38 528.70,146.00 528.70,146.00
             528.70,146.00 474.00,146.00 474.00,146.00
             474.00,146.00 474.00,4.00 474.00,4.00 Z
           M 647.25,4.00
           C 647.25,4.00 625.58,146.00 625.58,146.00
             625.58,146.00 599.97,146.00 599.97,146.00
             599.97,146.00 590.91,79.14 590.91,79.14
             590.91,79.14 581.64,146.00 581.64,146.00
             581.64,146.00 556.03,146.00 556.03,146.00
             556.03,146.00 534.36,4.00 534.36,4.00
             534.36,4.00 560.17,4.00 560.17,4.00
             560.17,4.00 569.23,94.13 569.23,94.13
             569.23,94.13 578.69,4.00 578.69,4.00
             578.69,4.00 602.92,4.00 602.92,4.00
             602.92,4.00 612.38,94.13 612.38,94.13
             612.38,94.13 621.44,4.00 621.44,4.00
             621.44,4.00 647.25,4.00 647.25,4.00 Z
           M 744.00,4.00
           C 744.00,4.00 744.00,146.00 744.00,146.00
             744.00,146.00 720.00,146.00 720.00,146.00
             720.00,146.00 720.00,65.03 720.00,65.03
             720.00,65.03 710.20,146.00 710.20,146.00
             710.20,146.00 688.80,146.00 688.80,146.00
             688.80,146.00 679.00,64.83 679.00,64.83
             679.00,64.83 679.00,146.00 679.00,146.00
             679.00,146.00 655.00,146.00 655.00,146.00
             655.00,146.00 655.00,4.00 655.00,4.00
             655.00,4.00 690.80,4.00 690.80,4.00
             690.80,4.00 699.41,111.23 699.41,111.23
             699.41,111.23 708.20,4.00 708.20,4.00
             708.20,4.00 744.00,4.00 744.00,4.00 Z
           M 799.25,146.00
           C 799.25,146.00 797.08,124.70 797.08,124.70
             797.08,124.70 783.30,124.70 783.30,124.70
             783.30,124.70 781.13,146.00 781.13,146.00
             781.13,146.00 752.17,146.00 752.17,146.00
             752.17,146.00 775.81,4.00 775.81,4.00
             775.81,4.00 804.56,4.00 804.56,4.00
             804.56,4.00 828.20,146.00 828.20,146.00
             828.20,146.00 798.86,146.00 798.86,146.00
             798.86,146.00 799.25,146.00 799.25,146.00 Z
           M 795.11,103.59
           C 795.11,103.59 790.19,46.80 790.19,46.80
             790.19,46.80 785.27,103.59 785.27,103.59
             785.27,103.59 795.11,103.59 795.11,103.59 Z
           M 877.22,146.00
           C 877.22,146.00 860.00,69.08 860.00,69.08
             860.00,69.08 860.00,146.00 860.00,146.00
             860.00,146.00 835.00,146.00 835.00,146.00
             835.00,146.00 835.00,4.00 835.00,4.00
             835.00,4.00 861.56,4.00 861.56,4.00
             861.56,4.00 878.00,83.88 878.00,83.88
             878.00,83.88 878.00,4.00 878.00,4.00
             878.00,4.00 903.00,4.00 903.00,4.00
             903.00,4.00 903.00,146.00 903.00,146.00
             903.00,146.00 877.22,146.00 877.22,146.00 Z" />
</svg>
