<?xml version="1.0" encoding="UTF-8" standalone="no"?>
<!DOCTYPE svg PUBLIC "-//W3C//DTD SVG 20010904//EN"
              "http://www.w3.org/TR/2001/REC-SVG-20010904/DTD/svg10.dtd">

<svg xmlns="http://www.w3.org/2000/svg"
     viewBox="0 0 910 150">
  <path id="resumePath"
        fill="white"
        d="M 75.38,145.22
           C 75.38,145.61 75.17,145.80 74.78,146.00
             74.78,146.00 48.36,146.00 48.36,146.00
             46.98,146.00 46.00,142.84 46.00,138.91
             46.00,138.91 46.00,96.11 46.00,96.11
             46.00,92.16 44.59,90.19 41.00,90.19
             41.00,90.19 36.00,90.19 36.00,90.19
             36.00,90.19 36.00,146.00 36.00,146.00
             36.00,146.00 8.00,146.00 8.00,146.00
             8.00,146.00 8.00,4.00 8.00,4.00
             8.00,4.00 41.00,4.00 41.00,4.00
             49.69,4.00 58.00,7.36 64.13,13.47
             70.44,19.78 74.00,28.45 74.00,38.13
             74.00,38.13 74.00,56.27 74.00,56.27
             74.00,64.94 69.47,73.23 64.14,79.34
             71.44,85.06 74.00,93.73 74.00,102.42
             74.00,102.42 74.00,139.30 74.00,139.30
             74.00,141.27 74.59,143.44 75.19,144.81
             75.19,144.81 75.38,145.22 75.38,145.22 Z
           M 46.00,33.39
           C 46.00,29.44 44.80,27.27 41.00,27.27
             41.00,27.27 36.00,27.27 36.00,27.27
             36.00,27.27 36.00,66.91 36.00,66.91
             36.00,66.91 41.00,66.91 41.00,66.91
             44.80,66.91 46.00,64.94 46.00,61.00
             46.00,61.00 46.00,33.39 46.00,33.39 Z
           M 83.00,4.00
           C 83.00,4.00 137.70,4.00 137.70,4.00
             137.70,4.00 137.70,27.64 137.70,27.64
             137.70,27.64 112.00,27.64 112.00,27.64
             112.00,27.64 112.00,66.00 112.00,66.00
             112.00,66.00 131.00,66.00 131.00,66.00
             131.00,66.00 131.00,86.00 131.00,86.00
             131.00,86.00 112.00,86.00 112.00,86.00
             112.00,86.00 112.00,121.38 112.00,121.38
             112.00,121.38 137.70,121.38 137.70,121.38
             137.70,121.38 137.70,146.00 137.70,146.00
             137.70,146.00 83.00,146.00 83.00,146.00
             83.00,146.00 83.00,4.00 83.00,4.00 Z
           M 209.78,117.94
           C 209.78,127.03 206.61,134.36 199.69,141.09
             194.34,146.42 187.02,149.00 176.53,149.00
             166.67,149.00 160.28,146.63 154.86,141.09
             148.09,134.36 145.00,127.05 145.00,117.94
             145.00,117.94 145.00,95.19 145.00,95.19
             145.00,95.19 171.83,95.19 171.83,95.19
             171.83,95.19 171.83,119.31 171.83,119.31
             171.83,123.28 175.41,123.67 176.53,123.67
             177.47,123.67 181.00,123.28 181.00,119.33
             181.00,119.33 181.00,101.91 181.00,101.91
             181.00,95.78 179.27,95.19 172.72,88.66
             172.72,88.66 152.70,70.06 152.70,70.06
             147.50,64.72 145.00,59.58 145.00,50.88
             145.00,50.47 145.00,33.06 145.00,33.06
             145.00,23.97 148.09,16.44 154.86,9.72
             160.28,4.38 166.66,2.00 176.72,2.00
             186.81,2.00 193.36,4.38 198.91,9.72
             205.83,16.44 209.00,23.97 209.00,33.06
             209.00,33.06 209.00,53.64 209.00,53.64
             209.00,53.64 181.00,53.64 181.00,53.64
             181.00,53.64 181.00,31.67 181.00,31.67
             181.00,27.92 178.39,27.13 177.09,27.13
             175.42,27.13 173.00,27.92 173.00,31.48
             173.00,31.48 173.00,48.09 173.00,48.09
             173.00,54.81 176.73,56.00 181.45,60.75
             181.45,60.75 202.31,78.77 202.31,78.77
             208.59,85.09 209.78,90.44 209.78,101.31
             209.78,101.31 209.78,117.94 209.78,117.94 Z
           M 255.00,4.00
           C 255.00,4.00 283.00,4.00 283.00,4.00
             283.00,4.00 283.00,117.34 283.00,117.34
             283.00,126.84 279.44,134.95 273.13,141.28
             267.00,147.22 258.69,149.00 250.00,149.00
             241.31,149.00 232.81,147.22 226.88,141.28
             220.56,134.95 217.00,126.84 217.00,117.34
             217.00,117.34 217.00,4.00 217.00,4.00
             217.00,4.00 245.00,4.00 245.00,4.00
             245.00,4.00 245.00,119.72 245.00,119.72
             245.00,123.69 248.66,124.08 250.00,124.08
             251.34,124.08 255.00,123.69 255.00,119.72
             255.00,119.72 255.00,4.00 255.00,4.00 Z
           M 380.00,4.00
           C 380.00,4.00 380.00,146.00 380.00,146.00
             380.00,146.00 356.00,146.00 356.00,146.00
             356.00,146.00 356.00,65.03 356.00,65.03
             356.00,65.03 346.20,146.00 346.20,146.00
             346.20,146.00 324.80,146.00 324.80,146.00
             324.80,146.00 315.00,64.83 315.00,64.83
             315.00,64.83 315.00,146.00 315.00,146.00
             315.00,146.00 291.00,146.00 291.00,146.00
             291.00,146.00 291.00,4.00 291.00,4.00
             291.00,4.00 326.80,4.00 326.80,4.00
             326.80,4.00 335.41,111.23 335.41,111.23
             335.41,111.23 344.20,4.00 344.20,4.00
             344.20,4.00 380.00,4.00 380.00,4.00 Z
           M 391.00,4.00
           C 391.00,4.00 445.70,4.00 445.70,4.00
             445.70,4.00 445.70,27.64 445.70,27.64
             445.70,27.64 420.00,27.64 420.00,27.64
             420.00,27.64 420.00,66.00 420.00,66.00
             420.00,66.00 439.00,66.00 439.00,66.00
             439.00,66.00 439.00,86.00 439.00,86.00
             439.00,86.00 420.00,86.00 420.00,86.00
             420.00,86.00 420.00,121.38 420.00,121.38
             420.00,121.38 445.70,121.38 445.70,121.38
             445.70,121.38 445.70,146.00 445.70,146.00
             445.70,146.00 391.00,146.00 391.00,146.00
             391.00,146.00 391.00,4.00 391.00,4.00 Z" />
</svg>
