<?xml version="1.0" encoding="UTF-8" standalone="no"?>
<!DOCTYPE svg PUBLIC "-//W3C//DTD SVG 20010904//EN"
              "http://www.w3.org/TR/2001/REC-SVG-20010904/DTD/svg10.dtd">

<svg xmlns="http://www.w3.org/2000/svg"
     width="10.7556in" height="10.0556in"
     viewBox="0 0 968 905">
  <path id="shirt"
        fill="none" stroke="black" stroke-width="1"
        d="M 874.41,650.85
           C 848.48,632.41 755.72,591.53 734.96,589.19
             730.68,588.71 660.84,567.26 632.97,562.11
             621.06,559.91 616.92,559.27 613.73,559.27
             611.82,562.54 609.76,567.62 606.51,572.73
             615.06,583.10 619.50,596.33 619.50,596.33
             642.08,674.97 611.81,738.27 562.09,796.09
             554.69,804.68 546.65,808.21 536.55,802.45
             513.24,789.14 488.98,774.43 465.82,760.84
             460.40,761.77 454.69,762.75 449.27,763.67
             449.68,764.44 450.25,765.67 450.67,766.44
             446.38,769.19 442.62,774.02 438.51,773.78
             428.73,773.20 419.99,769.55 410.24,767.73
             406.56,767.05 402.27,767.87 398.47,767.82
             395.60,766.82 388.78,764.49 385.20,763.29
             384.15,765.62 380.27,765.22 380.80,771.31
             374.16,768.18 378.25,765.19 376.13,761.58
             375.14,759.38 374.06,756.58 373.07,754.38
             369.42,748.53 364.81,733.05 361.16,735.87
             349.25,745.82 346.41,739.47 346.38,727.88
             346.39,721.53 342.80,716.30 339.81,713.50
             336.82,710.69 328.76,704.13 326.06,701.00
             322.36,696.71 314.76,702.98 311.06,698.69
             307.92,696.40 303.86,693.64 303.06,691.69
             296.24,682.61 295.36,687.54 294.38,682.19
             287.93,658.87 281.24,636.21 275.69,612.69
             273.50,603.43 274.61,593.43 274.25,583.75
             205.78,600.88 141.27,629.47 80.33,664.68
             76.10,667.12 72.31,672.11 70.53,676.77
             52.49,723.97 33.32,770.84 17.83,818.89
             8.98,846.32 6.34,875.76 0.77,905.02
             323.76,905.02 643.36,905.02 967.99,905.02
             951.72,850.45 936.07,797.97 920.42,745.49
             920.42,745.49 899.76,667.56 874.41,650.85 Z
           M 1099.13,247.50" />
</svg>
